<svg width="336" height="109" viewBox="0 0 336 109" fill="none" xmlns="http://www.w3.org/2000/svg">
<path fill-rule="evenodd" clip-rule="evenodd" d="M232.283 11.3916C235.161 11.3916 236.546 11.9264 237.079 13.3168C237.506 14.2794 237.932 19.3064 237.932 24.3333C237.932 30.6437 238.252 33.1037 238.998 32.1411C239.638 31.3924 241.983 29.8951 244.328 28.9324C246.886 27.8629 251.47 27.1142 256.053 27.1142C261.17 27.1142 265.007 27.7559 268.312 29.2533C270.977 30.4298 274.921 32.8898 281.103 38.1307L285.154 34.7081C287.286 32.8898 291.23 30.4298 293.895 29.2533C297.199 27.7559 301.037 27.1142 306.153 27.1142C310.737 27.1142 315.321 27.8629 317.879 28.9324C320.224 29.8951 322.889 31.8203 323.848 33.1037C325.66 35.4568 325.66 35.4568 324.488 28.3977L336 29.0394V78.2392L324.808 78.774V65.0836C324.808 53.7463 324.381 50.7515 322.676 47.008C321.183 43.6924 319.265 41.7672 316.067 40.0559C313.189 38.6655 309.458 37.7029 306.153 37.7029C302.636 37.7029 299.544 38.4515 297.093 39.842C295.067 41.0185 292.296 43.6924 290.91 45.7246C289.311 48.0776 288.565 50.9654 288.565 53.8532C288.565 56.4202 289.418 60.1637 290.484 62.4097C291.443 64.5489 293.255 66.9019 294.428 67.7575C295.6 68.5062 298.372 69.148 300.61 69.148C303.169 69.148 305.514 68.2923 307.219 66.688C308.712 65.4045 310.63 62.4097 311.376 60.0567C312.869 55.8854 312.975 55.7784 324.275 55.0298L323.635 59.201C323.315 61.4471 321.716 65.5115 320.224 68.2923C318.199 71.8219 315.747 74.2819 312.336 76.314C309.458 77.9184 305.087 79.4158 302.422 79.6297C299.758 79.9505 295.707 79.5227 293.362 78.6671C291.017 77.9184 287.286 75.6723 281.103 70.2175L277.159 73.7471C274.921 75.6723 271.19 77.9184 268.845 78.6671C266.5 79.5227 262.449 79.9505 259.784 79.7366C257.013 79.4158 252.749 77.9184 249.764 76.1001C245.714 73.6401 243.688 71.501 238.359 61.1263L238.465 67.8645C238.465 71.501 238.039 75.4584 237.399 76.6349C236.653 78.2392 235.267 78.774 232.069 78.774C228.872 78.774 227.592 78.2392 226.74 76.6349C226.207 75.4584 225.674 70.9662 225.567 66.688C225.46 59.9497 225.354 59.415 224.501 62.7306C223.968 64.7628 221.73 68.6132 219.491 71.1801C217.359 73.854 213.628 76.8488 211.283 77.9184C208.938 78.881 204.888 79.8436 202.223 79.8436C199.558 79.8436 195.507 78.881 193.162 77.7045C190.817 76.6349 188.152 75.0306 187.299 74.2819C186.34 73.5332 184.634 71.7149 181.33 67.5436L180.69 71.8219C180.371 74.1749 179.305 78.0253 178.132 80.3784C177.066 82.6245 174.721 85.9401 172.909 87.7583C171.203 89.4696 167.366 92.0366 164.381 93.427C160.437 95.2453 156.067 96.1009 147.752 96.7427C138.372 97.3844 136.133 97.1705 134.641 95.887C133.682 95.0314 132.829 93.1062 132.936 91.6088C132.936 90.1114 133.362 88.4001 133.788 87.7583C134.215 87.0097 139.012 86.3679 145.834 86.154C155.747 85.7262 157.559 85.4053 161.29 82.9453C163.528 81.4479 166.3 78.4532 167.366 76.314C168.752 73.3193 169.178 69.6828 169.178 61.661C169.178 53.6393 168.752 50.0028 167.366 47.008C166.3 44.8689 163.528 41.8741 161.29 40.3768C157.986 38.2376 155.747 37.5959 151.163 37.5959C147.113 37.5959 144.021 38.3446 141.57 39.735C139.544 40.9115 136.986 43.0507 135.92 44.548C134.748 46.0454 133.575 49.3611 133.255 52.035C132.722 55.6715 133.149 58.0245 134.854 61.661C136.027 64.3349 138.265 67.1158 139.758 67.8645C141.25 68.5062 143.808 69.148 145.514 69.148C147.113 69.2549 149.671 68.2923 151.377 67.0088C152.976 65.8323 155.107 62.7306 156.173 60.0567C157.986 55.2437 157.986 55.1367 163.102 55.2437C168.005 55.2437 168.112 55.2437 168.112 58.7732C168.112 60.5915 167.046 64.3349 165.66 66.9019C164.381 69.5758 161.823 72.8914 160.011 74.3888C158.092 75.8862 154.788 77.8114 152.549 78.4532C150.204 79.2019 146.58 79.8436 144.448 79.8436C142.209 79.8436 138.585 79.0949 136.453 78.1323C134.215 77.2766 131.017 75.2445 129.311 73.6401C127.606 72.0358 125.154 68.3993 123.768 65.4045C121.956 61.661 121.21 58.1315 121.21 53.6393C121.21 49.575 121.956 45.7246 123.235 42.9437C124.408 40.5907 127.179 37.0611 129.418 35.0289C131.656 32.9968 135.6 30.4298 138.265 29.2533C141.25 27.8629 145.62 27.1142 149.991 27.0072C154.255 26.9003 158.945 27.649 162.036 28.8255C164.808 29.7881 167.792 31.7133 168.645 33.1037C170.244 35.4568 170.244 35.4568 169.924 32.2481C169.711 29.0394 169.818 29.0394 180.371 29.0394L180.904 41.3394L184.954 36.9542C187.086 34.4942 190.71 31.6064 192.949 30.5368C195.081 29.3603 199.345 28.0768 202.223 27.4351C205.847 26.6864 209.471 26.6864 213.735 27.542C217.039 28.0768 221.09 29.5742 225.674 32.7829L225.46 23.3707C225.354 16.4186 225.674 13.6377 226.74 12.6751C227.592 11.9264 230.044 11.3916 232.283 11.3916V11.3916ZM196.999 40.5907C194.868 41.7672 192.949 44.2272 191.563 47.222C190.177 50.5376 189.644 53.3185 190.071 56.0993C190.391 58.2384 191.35 61.3402 192.203 63.0515C193.055 64.6558 194.761 66.688 196.147 67.5436C197.426 68.3993 199.771 69.148 201.476 69.148C203.075 69.148 205.847 68.3993 207.552 67.5436C209.898 66.3671 211.283 64.5489 212.669 60.4845L214.481 55.1367C225.674 55.7785 225.674 55.7784 225.674 52.5698C225.674 50.8585 224.608 47.7567 223.329 45.7246C221.943 43.6924 219.491 41.1255 217.679 40.1628C215.973 39.0933 212.562 38.0237 210.217 37.7029C207.872 37.382 204.674 37.4889 203.075 38.0237C201.476 38.4515 198.705 39.6281 196.999 40.5907ZM244.221 41.3394C243.049 42.195 241.237 44.1202 240.277 45.6176C239.318 47.115 238.465 50.0028 238.465 52.035C238.465 55.4576 238.678 55.7784 241.45 55.3506C243.049 55.1367 245.5 55.2437 246.993 55.5645C248.911 55.9924 249.871 57.1689 250.51 59.415C250.937 61.2332 252.749 64.228 254.454 65.9393C256.8 68.2923 258.612 69.148 261.383 69.148C263.408 69.148 266.18 68.5062 267.566 67.6506C268.845 66.7949 270.764 64.228 271.936 61.9819C273.215 59.201 273.748 56.2063 273.535 52.3558C273.215 48.3985 272.363 46.1524 270.444 44.0133C268.951 42.4089 265.86 40.1628 263.515 39.0933C261.17 38.0237 257.759 37.1681 256.053 37.1681C254.348 37.1681 251.363 37.8098 249.658 38.4515C247.846 39.2002 245.394 40.4837 244.221 41.3394V41.3394Z" fill="#033247"/>
<path fill-rule="evenodd" clip-rule="evenodd" d="M53.7358 0.0116623C58.1062 -0.0952938 64.1821 0.546443 67.0602 1.40209C70.0449 2.15079 74.0955 3.64817 76.1208 4.50382C78.1461 5.46643 80.811 6.85686 81.877 7.60555C83.0495 8.35424 84.6485 9.42381 85.5012 10.0655C86.2474 10.7073 89.1255 13.3812 91.897 16.162C94.6684 18.9429 97.7597 22.3655 98.8257 23.649C99.8916 25.0394 101.704 27.9272 102.876 30.1733C103.942 32.3124 105.648 36.9115 106.501 40.3341C107.353 43.6498 108.099 50.0672 108.099 54.4524C108.099 58.8376 107.353 65.3619 106.394 68.8914C105.541 72.421 103.516 77.6618 101.917 80.6566C100.318 83.5444 96.374 88.6783 93.1761 91.994C89.9782 95.4166 84.8617 99.5879 81.9836 101.406C78.9989 103.331 73.5625 105.791 69.7251 106.968C65.2481 108.358 59.8117 109 54.2687 109C49.5785 109 43.2894 108.358 40.4113 107.61C37.4266 106.861 32.6299 105.043 29.7518 103.652C26.7671 102.262 21.6505 98.4113 18.2395 95.2027C14.8284 91.887 10.2448 86.5392 8.11288 83.3305C6.08757 80.1218 3.42268 74.774 2.25013 71.5653C0.757792 67.501 0.118219 62.581 0.011623 55.5219C-0.0949725 49.5324 0.544601 43.222 1.39736 40.0133C2.25013 37.1255 4.91502 31.3498 7.26012 27.2855C9.71182 23.3281 14.0822 17.7664 16.9603 14.9855C19.945 12.3116 25.1682 8.4612 28.6858 6.53599C32.2035 4.61078 37.5332 2.3647 40.4113 1.50905C43.396 0.653399 49.3653 0.0116623 53.7358 0.0116623V0.0116623ZM28.899 39.2646C28.366 41.4037 28.7924 44.0776 29.7518 46.4306C31.0309 49.4254 31.1375 50.495 30.0716 51.7784C29.3254 52.7411 27.5133 53.4897 26.0209 53.3828C24.5286 53.3828 22.5033 54.1315 21.5439 55.201C20.478 56.2706 19.6252 58.6236 19.6252 60.3349C19.6252 62.1532 20.3714 64.3993 21.4373 65.3619C22.5033 66.4314 24.8484 67.2871 26.5539 67.2871C28.366 67.2871 30.6045 66.5384 31.6705 65.4688C32.9496 64.0784 33.4826 62.1532 33.2694 58.4097C33.0562 54.7732 33.376 53.0619 34.5486 52.4202C35.4013 51.8854 37.1069 51.7785 38.2794 51.9924C39.452 52.3132 42.2234 51.7784 44.462 50.8158C48.0862 49.2115 48.6192 49.2115 51.0709 51.0298C53.6292 52.6341 53.7358 53.2758 53.0962 57.661C52.5632 61.2975 52.883 63.6506 54.4819 67.2871C55.6545 70.068 58.1062 73.2766 60.2381 74.774C62.5832 76.3784 65.7811 77.5549 69.1921 77.7688C72.2834 78.0897 76.0142 77.5549 78.2527 76.6992C80.278 75.8436 83.3693 73.2766 85.1814 71.0306C87.9529 67.501 88.3793 66.0036 88.3793 60.228C88.3793 55.0941 87.8463 52.848 86.1408 50.495C84.8617 48.8906 82.7297 46.6446 81.344 45.575C79.9583 44.5054 77.0802 43.3289 75.0549 42.7941C72.8164 42.2593 69.4053 42.3663 66.5272 43.115C63.8623 43.7567 60.4513 45.3611 58.8523 46.7515C56.0809 48.9976 55.6545 48.9976 52.6698 47.5002C49.8983 46.1098 49.4719 45.2541 49.4719 41.6176C49.4719 38.302 48.7258 36.5907 46.2741 34.1307C43.8224 31.6707 42.1169 30.922 39.0256 30.922C36.2541 30.922 34.0156 31.6707 32.2035 33.382C30.7111 34.6655 29.2188 37.3394 28.899 39.2646V39.2646Z" fill="#033247"/>
</svg>
